<svg width="32" height="32" xmlns="http://www.w3.org/2000/svg" viewBox="0 0 1285 1289"><path fill="#649ca4" d="M1097.462 2.088c-1.67.473-4.37 2.25-6 3.951l-2.962 3.092-.5 105.478-.5 105.478-13.5.303c-46.784 1.051-83.309 42.232-60.172 67.841 21.257 23.529 79.795 10.221 96.996-22.052l3.176-5.959v-73.61c0-40.485.242-73.61.538-73.61 2.005 0 19.041 12.859 23.691 17.88 9.305 10.051 12.561 18.803 16.574 44.553 1.746 11.204 6.775 15.441 14.497 12.215 14.936-6.241 18.053-48.661 6.196-84.331-8.391-25.244-22.384-44.796-43.544-60.843-12.994-9.855-17.19-15.927-18.021-26.081-.917-11.208-7.425-16.861-16.469-14.305m94.411 200.596c-6.242 3.874-5.873-3.186-5.873 112.22V420h-11.84c-40.761 0-76.85 30.476-68.815 58.113 10.309 35.465 85.512 25.703 104.062-13.507l2.593-5.482v-73.062c0-40.184.229-73.062.509-73.062 2.043 0 18.445 12.267 23.166 17.327 9.259 9.922 13.553 20.926 16.362 41.93 1.566 11.704 3.794 15.13 10.111 15.542 11.887.777 18.287-13.552 18.224-40.799-.098-42.56-18.551-81.492-49.372-104.164-13.976-10.281-18.442-16.531-19.239-26.926-.562-7.328-2.552-11.233-6.86-13.461-3.69-1.908-9.751-1.799-13.028.235m-241.53 165.312c-6.641 4.381-6.343-.963-6.343 113.81v103.765l-9.825-.395c-49.064-1.971-90.327 44.823-61.991 70.3 23.549 21.172 79.511 6.714 95.403-24.648l2.413-4.762v-74.033c0-40.75.387-74.033.861-74.033 2.18 0 17.266 10.982 22.823 16.615 9.789 9.921 13.636 19.25 16.832 40.816 1.885 12.721 3.277 15.952 7.503 17.426 18.016 6.28 27.303-32.261 17.489-72.574-7.742-31.799-22.247-54.235-47.688-73.758-12.751-9.784-16.932-15.901-17.756-25.973-.551-6.74-.961-7.911-3.748-10.698-4.154-4.153-11.243-4.978-15.973-1.858m-492.547 86.267A3572401.873 3572401.873 0 0 1 198 701.89C41.625 850.928.438 890.686.204 892.828c-.272 2.487 21.998 22.569 49.856 44.956l2.842 2.285L286.05 718.534C414.281 596.69 519.594 497 520.08 497c.485 0 104.984 98.888 232.22 219.75s232.237 220.533 233.336 221.49c1.945 1.692 2.739 1.113 29.181-21.287 14.951-12.664 27.183-23.369 27.183-23.789 0-.42-112.58-108.067-250.179-239.214-137.598-131.148-255.027-243.092-260.954-248.765l-10.775-10.316-62.296 59.394m48.363 126.032c-7.738 7.263-91.698 87.005-186.578 177.205l-172.51 164-.035 183.75L147 1289h298V980h150v309h298l-.013-183.75-.013-183.75-163.737-155.651c-90.055-85.608-173.923-165.35-186.373-177.205l-22.636-21.555-14.069 13.206M225 1054.5v75.5h147V979H225v75.5m447 0v75.513l73.75-.257 73.75-.256v-150l-73.75-.256-73.75-.257v75.513" fill-rule="evenodd"/></svg>